<svg width="22" height="34" viewBox="0 0 22 34" fill="none" xmlns="http://www.w3.org/2000/svg">
<g clip-path="url(#clip0_44_3184)">
<path d="M9.85159 16.8375L4.23731 22.4501L0.974794 19.1886C-0.323141 17.8894 -0.323141 15.7857 0.974794 14.4865L4.23731 11.225L9.85159 16.8375Z" fill="#0A043C"/>
<path d="M15.4645 22.452L9.85071 28.0641L15.4645 33.6762L21.0783 28.0641L15.4645 22.452Z" fill="#0A043C"/>
<path d="M18.7284 14.4865C20.0263 15.7857 20.0263 17.8894 18.7284 19.1886L15.4659 22.4501L9.85159 28.0626L4.2373 22.4501L9.85159 16.8375L4.2373 11.225L9.85159 5.61243L15.4659 11.225L18.7284 14.4865Z" fill="#06B57B"/>
<path d="M15.4666 0.000478883L9.85278 5.61255L15.4666 11.2246L21.0804 5.61255L15.4666 0.000478883Z" fill="#0A043C"/>
</g>
<defs>
<clipPath id="clip0_44_3184">
<rect width="196" height="33.677" fill="white"/>
</clipPath>
</defs>
</svg>
