<svg width="196" height="34" viewBox="0 0 196 34" fill="none" xmlns="http://www.w3.org/2000/svg">
<g clip-path="url(#clip0_44_3184)">
<path d="M9.85159 16.8375L4.23731 22.4501L0.974794 19.1886C-0.323141 17.8894 -0.323141 15.7857 0.974794 14.4865L4.23731 11.225L9.85159 16.8375Z" fill="#0A043C"/>
<path d="M15.4645 22.452L9.85071 28.0641L15.4645 33.6762L21.0783 28.0641L15.4645 22.452Z" fill="#0A043C"/>
<path d="M18.7284 14.4865C20.0263 15.7857 20.0263 17.8894 18.7284 19.1886L15.4659 22.4501L9.85159 28.0626L4.2373 22.4501L9.85159 16.8375L4.2373 11.225L9.85159 5.61243L15.4659 11.225L18.7284 14.4865Z" fill="#06B57B"/>
<path d="M15.4666 0.000478883L9.85278 5.61255L15.4666 11.2246L21.0804 5.61255L15.4666 0.000478883Z" fill="#0A043C"/>
<path d="M29.6438 16.6543C29.6438 11.5045 31.2498 6.68799 38.7344 6.68799C45.3099 6.68799 47.6129 10.3837 47.6129 14.6247H42.6434C42.3403 12.0801 41.401 10.7169 38.7344 10.7169C35.1891 10.7169 34.6133 13.3524 34.6133 16.6543C34.6133 19.9562 35.1588 22.5916 38.7344 22.5916C41.4313 22.5916 42.3403 21.289 42.6434 18.6536H47.6432C47.6432 23.1369 45.3402 26.6205 38.7344 26.6205C31.2195 26.6205 29.6438 21.804 29.6438 16.6543Z" fill="#0A043C"/>
<path d="M55.461 6.96228H61.6427L68.4909 26.3496H63.3396L62.279 23.0174H54.8247L53.7641 26.3496H48.6128L55.461 6.96228ZM61.2184 19.4109L58.5215 11.2319L55.8853 19.4109H61.2184Z" fill="#0A043C"/>
<path d="M70.2484 6.96228H77.6724C85.1267 6.96228 85.8539 10.9003 85.8539 13.4449C85.8539 15.5957 85.1267 18.9582 80.4905 19.2308L86.7024 26.3496H80.7026L75.1573 19.0187V26.3496H70.2484V6.96228ZM77.6118 15.8666C80.3087 15.8666 80.8844 14.564 80.8844 13.4432C80.8844 12.2315 80.3087 10.9592 77.6118 10.9592H75.1573V15.8666H77.6118Z" fill="#0A043C"/>
<path d="M89.0054 6.96228H96.0657L100.308 19.352C100.581 20.1396 100.823 21.0483 100.914 21.4422C101.005 21.0483 101.187 20.1396 101.459 19.352L105.823 6.96228H112.823V26.3496H107.884V13.0511L103.278 26.3496H98.5808L93.884 13.0511V26.3496H89.0054V6.96228Z" fill="#0A043C"/>
<path d="M116.732 6.96228H130.762V10.9609H121.61V14.5657H129.852V18.3523H121.61V22.3509H130.762V26.3496H116.732V6.96228Z" fill="#0A043C"/>
<path d="M133.911 6.96228H139.941L147.123 19.3217V6.96228H152.062V26.3496H146.274L138.881 14.0508V26.3496H133.911V6.96228Z" fill="#0A043C"/>
<path d="M159.335 10.9592H154.456V6.96057H169.062V10.9592H164.183V26.3478H159.335V10.9592Z" fill="#0A043C"/>
<path d="M171.395 6.96228H176.304V26.3496H171.395V6.96228Z" fill="#0A043C"/>
<path d="M179.576 19.4715H184.455C184.546 21.4405 185.303 22.7431 188.122 22.7431C190.637 22.7431 191.243 21.7131 191.243 20.8043C191.243 16.8057 179.91 20.047 179.91 12.5648C179.91 9.59608 181.697 6.68799 187.849 6.68799C194 6.68799 195.697 9.59608 195.788 13.5341H190.94C190.849 11.8983 190.364 10.5654 187.637 10.5654C185.364 10.5654 184.788 11.4742 184.788 12.2921C184.788 15.8364 196 12.8677 196 20.5317C196 23.3186 194.515 26.6205 187.849 26.6205C181.819 26.6205 179.576 23.9245 179.576 19.4715Z" fill="#0A043C"/>
</g>
<defs>
<clipPath id="clip0_44_3184">
<rect width="196" height="33.677" fill="white"/>
</clipPath>
</defs>
</svg>